solid ascii
  facet normal 3.268628e-001 -9.450718e-001 0.000000e+000
    outer loop
      vertex   -2.243795e+002 1.685494e+002 0.000000e+000
      vertex   -2.158858e+002 1.714871e+002 0.000000e+000
      vertex   -2.243795e+002 1.685494e+002 1.000000e+000
    endloop
  endfacet
  facet normal 3.614624e-002 -1.045111e-001 -5.551115e-017
    outer loop
      vertex   -2.243795e+002 1.685494e+002 1.000000e+000
      vertex   -2.158858e+002 1.714871e+002 0.000000e+000
      vertex   -2.158858e+002 1.714871e+002 1.000000e+000
    endloop
  endfacet
  facet normal 7.071068e-001 7.071068e-001 -0.000000e+000
    outer loop
      vertex   -2.158858e+002 1.714871e+002 0.000000e+000
      vertex   -2.285129e+002 1.841142e+002 0.000000e+000
      vertex   -2.158858e+002 1.714871e+002 1.000000e+000
    endloop
  endfacet
  facet normal 3.953537e-002 3.953537e-002 0.000000e+000
    outer loop
      vertex   -2.158858e+002 1.714871e+002 1.000000e+000
      vertex   -2.285129e+002 1.841142e+002 0.000000e+000
      vertex   -2.285129e+002 1.841142e+002 1.000000e+000
    endloop
  endfacet
  facet normal 0.000000e+000 0.000000e+000 9.898565e-001
    outer loop
      vertex   -2.262957e+002 1.734272e+002 1.000000e+000
      vertex   -2.264420e+002 1.735580e+002 1.000000e+000
      vertex   -2.280330e+002 1.719670e+002 1.000000e+000
    endloop
  endfacet
  facet normal 0.000000e+000 0.000000e+000 8.633665e-002
    outer loop
      vertex   -2.280330e+002 1.719670e+002 1.000000e+000
      vertex   -2.264420e+002 1.735580e+002 1.000000e+000
      vertex   -2.265728e+002 1.737043e+002 1.000000e+000
    endloop
  endfacet
  facet normal 0.000000e+000 0.000000e+000 8.162638e-002
    outer loop
      vertex   -2.280330e+002 1.719670e+002 1.000000e+000
      vertex   -2.265728e+002 1.737043e+002 1.000000e+000
      vertex   -2.266864e+002 1.738644e+002 1.000000e+000
    endloop
  endfacet
  facet normal 0.000000e+000 -0.000000e+000 9.844639e-001
    outer loop
      vertex   -2.280330e+002 1.719670e+002 1.000000e+000
      vertex   -2.266864e+002 1.738644e+002 1.000000e+000
      vertex   -2.289101e+002 1.728589e+002 1.000000e+000
    endloop
  endfacet
  facet normal 0.000000e+000 0.000000e+000 8.040853e-002
    outer loop
      vertex   -2.289101e+002 1.728589e+002 1.000000e+000
      vertex   -2.266864e+002 1.738644e+002 1.000000e+000
      vertex   -2.267813e+002 1.740361e+002 1.000000e+000
    endloop
  endfacet
  facet normal 0.000000e+000 0.000000e+000 7.919800e-002
    outer loop
      vertex   -2.289101e+002 1.728589e+002 1.000000e+000
      vertex   -2.267813e+002 1.740361e+002 1.000000e+000
      vertex   -2.268564e+002 1.742174e+002 1.000000e+000
    endloop
  endfacet
  facet normal 0.000000e+000 0.000000e+000 9.541635e-001
    outer loop
      vertex   -2.268564e+002 1.742174e+002 1.000000e+000
      vertex   -2.269107e+002 1.744060e+002 1.000000e+000
      vertex   -2.289101e+002 1.728589e+002 1.000000e+000
    endloop
  endfacet
  facet normal 0.000000e+000 -0.000000e+000 9.948192e-001
    outer loop
      vertex   -2.289101e+002 1.728589e+002 1.000000e+000
      vertex   -2.269107e+002 1.744060e+002 1.000000e+000
      vertex   -2.297723e+002 1.737652e+002 1.000000e+000
    endloop
  endfacet
  facet normal 0.000000e+000 0.000000e+000 6.645583e-002
    outer loop
      vertex   -2.297723e+002 1.737652e+002 1.000000e+000
      vertex   -2.269107e+002 1.744060e+002 1.000000e+000
      vertex   -2.269436e+002 1.745995e+002 1.000000e+000
    endloop
  endfacet
  facet normal 0.000000e+000 0.000000e+000 6.368019e-002
    outer loop
      vertex   -2.297723e+002 1.737652e+002 1.000000e+000
      vertex   -2.269436e+002 1.745995e+002 1.000000e+000
      vertex   -2.269546e+002 1.747954e+002 1.000000e+000
    endloop
  endfacet
  facet normal 0.000000e+000 -0.000000e+000 9.184690e-001
    outer loop
      vertex   -2.269546e+002 1.747954e+002 1.000000e+000
      vertex   -2.269436e+002 1.749914e+002 1.000000e+000
      vertex   -2.297723e+002 1.737652e+002 1.000000e+000
    endloop
  endfacet
  facet normal 0.000000e+000 0.000000e+000 5.147760e-002
    outer loop
      vertex   -2.297723e+002 1.737652e+002 1.000000e+000
      vertex   -2.269436e+002 1.749914e+002 1.000000e+000
      vertex   -2.269107e+002 1.751848e+002 1.000000e+000
    endloop
  endfacet
  facet normal 0.000000e+000 -0.000000e+000 9.601725e-001
    outer loop
      vertex   -2.297723e+002 1.737652e+002 1.000000e+000
      vertex   -2.269107e+002 1.751848e+002 1.000000e+000
      vertex   -2.306191e+002 1.746859e+002 1.000000e+000
    endloop
  endfacet
  facet normal 0.000000e+000 0.000000e+000 4.696823e-002
    outer loop
      vertex   -2.306191e+002 1.746859e+002 1.000000e+000
      vertex   -2.269107e+002 1.751848e+002 1.000000e+000
      vertex   -2.268564e+002 1.753734e+002 1.000000e+000
    endloop
  endfacet
  facet normal 0.000000e+000 0.000000e+000 4.189418e-002
    outer loop
      vertex   -2.306191e+002 1.746859e+002 1.000000e+000
      vertex   -2.268564e+002 1.753734e+002 1.000000e+000
      vertex   -2.267813e+002 1.755547e+002 1.000000e+000
    endloop
  endfacet
  facet normal 0.000000e+000 -0.000000e+000 8.754691e-001
    outer loop
      vertex   -2.306191e+002 1.746859e+002 1.000000e+000
      vertex   -2.267813e+002 1.755547e+002 1.000000e+000
      vertex   -2.314506e+002 1.756205e+002 1.000000e+000
    endloop
  endfacet
  facet normal -0.000000e+000 0.000000e+000 3.631887e-002
    outer loop
      vertex   -2.314506e+002 1.756205e+002 1.000000e+000
      vertex   -2.267813e+002 1.755547e+002 1.000000e+000
      vertex   -2.266864e+002 1.757265e+002 1.000000e+000
    endloop
  endfacet
  facet normal 0.000000e+000 0.000000e+000 3.223825e-002
    outer loop
      vertex   -2.314506e+002 1.756205e+002 1.000000e+000
      vertex   -2.266864e+002 1.757265e+002 1.000000e+000
      vertex   -2.265728e+002 1.758865e+002 1.000000e+000
    endloop
  endfacet
  facet normal 0.000000e+000 -0.000000e+000 7.082570e-001
    outer loop
      vertex   -2.265728e+002 1.758865e+002 1.000000e+000
      vertex   -2.264420e+002 1.760329e+002 1.000000e+000
      vertex   -2.314506e+002 1.756205e+002 1.000000e+000
    endloop
  endfacet
  facet normal 0.000000e+000 0.000000e+000 2.282677e-002
    outer loop
      vertex   -2.314506e+002 1.756205e+002 1.000000e+000
      vertex   -2.264420e+002 1.760329e+002 1.000000e+000
      vertex   -2.262957e+002 1.761636e+002 1.000000e+000
    endloop
  endfacet
  facet normal 0.000000e+000 0.000000e+000 9.056218e-001
    outer loop
      vertex   -2.314506e+002 1.756205e+002 1.000000e+000
      vertex   -2.262957e+002 1.761636e+002 1.000000e+000
      vertex   -2.285129e+002 1.841142e+002 1.000000e+000
    endloop
  endfacet
  facet normal 0.000000e+000 0.000000e+000 2.254989e-002
    outer loop
      vertex   -2.285129e+002 1.841142e+002 1.000000e+000
      vertex   -2.262957e+002 1.761636e+002 1.000000e+000
      vertex   -2.261356e+002 1.762772e+002 1.000000e+000
    endloop
  endfacet
  facet normal 0.000000e+000 0.000000e+000 2.354492e-002
    outer loop
      vertex   -2.285129e+002 1.841142e+002 1.000000e+000
      vertex   -2.261356e+002 1.762772e+002 1.000000e+000
      vertex   -2.259639e+002 1.763721e+002 1.000000e+000
    endloop
  endfacet
  facet normal 0.000000e+000 -0.000000e+000 9.972170e-001
    outer loop
      vertex   -2.259639e+002 1.763721e+002 1.000000e+000
      vertex   -2.257826e+002 1.764472e+002 1.000000e+000
      vertex   -2.285129e+002 1.841142e+002 1.000000e+000
    endloop
  endfacet
  facet normal 0.000000e+000 0.000000e+000 2.402331e-002
    outer loop
      vertex   -2.285129e+002 1.841142e+002 1.000000e+000
      vertex   -2.257826e+002 1.764472e+002 1.000000e+000
      vertex   -2.255940e+002 1.765015e+002 1.000000e+000
    endloop
  endfacet
  facet normal 0.000000e+000 0.000000e+000 2.348373e-002
    outer loop
      vertex   -2.285129e+002 1.841142e+002 1.000000e+000
      vertex   -2.255940e+002 1.765015e+002 1.000000e+000
      vertex   -2.254005e+002 1.765344e+002 1.000000e+000
    endloop
  endfacet
  facet normal 0.000000e+000 -0.000000e+000 9.449145e-001
    outer loop
      vertex   -2.254005e+002 1.765344e+002 1.000000e+000
      vertex   -2.252046e+002 1.765454e+002 1.000000e+000
      vertex   -2.285129e+002 1.841142e+002 1.000000e+000
    endloop
  endfacet
  facet normal 0.000000e+000 0.000000e+000 2.097128e-002
    outer loop
      vertex   -2.285129e+002 1.841142e+002 1.000000e+000
      vertex   -2.252046e+002 1.765454e+002 1.000000e+000
      vertex   -2.250086e+002 1.765344e+002 1.000000e+000
    endloop
  endfacet
  facet normal 0.000000e+000 0.000000e+000 1.911975e-002
    outer loop
      vertex   -2.285129e+002 1.841142e+002 1.000000e+000
      vertex   -2.250086e+002 1.765344e+002 1.000000e+000
      vertex   -2.248152e+002 1.765015e+002 1.000000e+000
    endloop
  endfacet
  facet normal -0.000000e+000 -0.000000e+000 7.434165e-001
    outer loop
      vertex   -2.248152e+002 1.765015e+002 1.000000e+000
      vertex   -2.246266e+002 1.764472e+002 1.000000e+000
      vertex   -2.285129e+002 1.841142e+002 1.000000e+000
    endloop
  endfacet
  facet normal 0.000000e+000 0.000000e+000 1.460839e-002
    outer loop
      vertex   -2.285129e+002 1.841142e+002 1.000000e+000
      vertex   -2.246266e+002 1.764472e+002 1.000000e+000
      vertex   -2.244453e+002 1.763721e+002 1.000000e+000
    endloop
  endfacet
  facet normal 0.000000e+000 0.000000e+000 1.210913e-002
    outer loop
      vertex   -2.285129e+002 1.841142e+002 1.000000e+000
      vertex   -2.244453e+002 1.763721e+002 1.000000e+000
      vertex   -2.242735e+002 1.762772e+002 1.000000e+000
    endloop
  endfacet
  facet normal -0.000000e+000 -0.000000e+000 4.419654e-001
    outer loop
      vertex   -2.242735e+002 1.762772e+002 1.000000e+000
      vertex   -2.241135e+002 1.761636e+002 1.000000e+000
      vertex   -2.285129e+002 1.841142e+002 1.000000e+000
    endloop
  endfacet
  facet normal 0.000000e+000 0.000000e+000 6.980378e-003
    outer loop
      vertex   -2.285129e+002 1.841142e+002 1.000000e+000
      vertex   -2.241135e+002 1.761636e+002 1.000000e+000
      vertex   -2.239671e+002 1.760329e+002 1.000000e+000
    endloop
  endfacet
  facet normal 0.000000e+000 0.000000e+000 2.696260e-001
    outer loop
      vertex   -2.285129e+002 1.841142e+002 1.000000e+000
      vertex   -2.239671e+002 1.760329e+002 1.000000e+000
      vertex   -2.158858e+002 1.714871e+002 1.000000e+000
    endloop
  endfacet
  facet normal 0.000000e+000 0.000000e+000 6.980378e-003
    outer loop
      vertex   -2.158858e+002 1.714871e+002 1.000000e+000
      vertex   -2.239671e+002 1.760329e+002 1.000000e+000
      vertex   -2.238364e+002 1.758865e+002 1.000000e+000
    endloop
  endfacet
  facet normal 0.000000e+000 0.000000e+000 9.545452e-003
    outer loop
      vertex   -2.158858e+002 1.714871e+002 1.000000e+000
      vertex   -2.238364e+002 1.758865e+002 1.000000e+000
      vertex   -2.237228e+002 1.757265e+002 1.000000e+000
    endloop
  endfacet
  facet normal 0.000000e+000 0.000000e+000 5.396556e-001
    outer loop
      vertex   -2.237228e+002 1.757265e+002 1.000000e+000
      vertex   -2.236279e+002 1.755547e+002 1.000000e+000
      vertex   -2.158858e+002 1.714871e+002 1.000000e+000
    endloop
  endfacet
  facet normal 0.000000e+000 0.000000e+000 1.460839e-002
    outer loop
      vertex   -2.158858e+002 1.714871e+002 1.000000e+000
      vertex   -2.236279e+002 1.755547e+002 1.000000e+000
      vertex   -2.235528e+002 1.753734e+002 1.000000e+000
    endloop
  endfacet
  facet normal 0.000000e+000 0.000000e+000 1.697318e-002
    outer loop
      vertex   -2.158858e+002 1.714871e+002 1.000000e+000
      vertex   -2.235528e+002 1.753734e+002 1.000000e+000
      vertex   -2.234985e+002 1.751848e+002 1.000000e+000
    endloop
  endfacet
  facet normal 0.000000e+000 0.000000e+000 8.136135e-001
    outer loop
      vertex   -2.234985e+002 1.751848e+002 1.000000e+000
      vertex   -2.234656e+002 1.749914e+002 1.000000e+000
      vertex   -2.158858e+002 1.714871e+002 1.000000e+000
    endloop
  endfacet
  facet normal 0.000000e+000 0.000000e+000 2.097128e-002
    outer loop
      vertex   -2.158858e+002 1.714871e+002 1.000000e+000
      vertex   -2.234656e+002 1.749914e+002 1.000000e+000
      vertex   -2.234546e+002 1.747954e+002 1.000000e+000
    endloop
  endfacet
  facet normal 0.000000e+000 0.000000e+000 2.244941e-002
    outer loop
      vertex   -2.158858e+002 1.714871e+002 1.000000e+000
      vertex   -2.234546e+002 1.747954e+002 1.000000e+000
      vertex   -2.234656e+002 1.745995e+002 1.000000e+000
    endloop
  endfacet
  facet normal 0.000000e+000 0.000000e+000 9.755992e-001
    outer loop
      vertex   -2.234656e+002 1.745995e+002 1.000000e+000
      vertex   -2.234985e+002 1.744060e+002 1.000000e+000
      vertex   -2.158858e+002 1.714871e+002 1.000000e+000
    endloop
  endfacet
  facet normal 0.000000e+000 0.000000e+000 2.402331e-002
    outer loop
      vertex   -2.158858e+002 1.714871e+002 1.000000e+000
      vertex   -2.234985e+002 1.744060e+002 1.000000e+000
      vertex   -2.235528e+002 1.742174e+002 1.000000e+000
    endloop
  endfacet
  facet normal 0.000000e+000 0.000000e+000 2.404739e-002
    outer loop
      vertex   -2.158858e+002 1.714871e+002 1.000000e+000
      vertex   -2.235528e+002 1.742174e+002 1.000000e+000
      vertex   -2.236279e+002 1.740361e+002 1.000000e+000
    endloop
  endfacet
  facet normal 0.000000e+000 0.000000e+000 9.825976e-001
    outer loop
      vertex   -2.236279e+002 1.740361e+002 1.000000e+000
      vertex   -2.237228e+002 1.738644e+002 1.000000e+000
      vertex   -2.158858e+002 1.714871e+002 1.000000e+000
    endloop
  endfacet
  facet normal 0.000000e+000 0.000000e+000 2.254989e-002
    outer loop
      vertex   -2.158858e+002 1.714871e+002 1.000000e+000
      vertex   -2.237228e+002 1.738644e+002 1.000000e+000
      vertex   -2.238364e+002 1.737043e+002 1.000000e+000
    endloop
  endfacet
  facet normal 0.000000e+000 0.000000e+000 5.687227e-001
    outer loop
      vertex   -2.158858e+002 1.714871e+002 1.000000e+000
      vertex   -2.238364e+002 1.737043e+002 1.000000e+000
      vertex   -2.243795e+002 1.685494e+002 1.000000e+000
    endloop
  endfacet
  facet normal 0.000000e+000 0.000000e+000 2.282677e-002
    outer loop
      vertex   -2.243795e+002 1.685494e+002 1.000000e+000
      vertex   -2.238364e+002 1.737043e+002 1.000000e+000
      vertex   -2.239671e+002 1.735580e+002 1.000000e+000
    endloop
  endfacet
  facet normal 0.000000e+000 0.000000e+000 2.765779e-002
    outer loop
      vertex   -2.243795e+002 1.685494e+002 1.000000e+000
      vertex   -2.239671e+002 1.735580e+002 1.000000e+000
      vertex   -2.241135e+002 1.734272e+002 1.000000e+000
    endloop
  endfacet
  facet normal 0.000000e+000 0.000000e+000 7.828142e-001
    outer loop
      vertex   -2.241135e+002 1.734272e+002 1.000000e+000
      vertex   -2.242735e+002 1.733136e+002 1.000000e+000
      vertex   -2.243795e+002 1.685494e+002 1.000000e+000
    endloop
  endfacet
  facet normal 0.000000e+000 -0.000000e+000 3.631887e-002
    outer loop
      vertex   -2.243795e+002 1.685494e+002 1.000000e+000
      vertex   -2.242735e+002 1.733136e+002 1.000000e+000
      vertex   -2.244453e+002 1.732187e+002 1.000000e+000
    endloop
  endfacet
  facet normal 0.000000e+000 0.000000e+000 7.377173e-001
    outer loop
      vertex   -2.243795e+002 1.685494e+002 1.000000e+000
      vertex   -2.244453e+002 1.732187e+002 1.000000e+000
      vertex   -2.253141e+002 1.693809e+002 1.000000e+000
    endloop
  endfacet
  facet normal 0.000000e+000 0.000000e+000 4.189418e-002
    outer loop
      vertex   -2.253141e+002 1.693809e+002 1.000000e+000
      vertex   -2.244453e+002 1.732187e+002 1.000000e+000
      vertex   -2.246266e+002 1.731436e+002 1.000000e+000
    endloop
  endfacet
  facet normal 0.000000e+000 0.000000e+000 4.696823e-002
    outer loop
      vertex   -2.253141e+002 1.693809e+002 1.000000e+000
      vertex   -2.246266e+002 1.731436e+002 1.000000e+000
      vertex   -2.248152e+002 1.730893e+002 1.000000e+000
    endloop
  endfacet
  facet normal 0.000000e+000 -0.000000e+000 8.196765e-001
    outer loop
      vertex   -2.253141e+002 1.693809e+002 1.000000e+000
      vertex   -2.248152e+002 1.730893e+002 1.000000e+000
      vertex   -2.262348e+002 1.702277e+002 1.000000e+000
    endloop
  endfacet
  facet normal 0.000000e+000 0.000000e+000 5.147760e-002
    outer loop
      vertex   -2.262348e+002 1.702277e+002 1.000000e+000
      vertex   -2.248152e+002 1.730893e+002 1.000000e+000
      vertex   -2.250086e+002 1.730564e+002 1.000000e+000
    endloop
  endfacet
  facet normal 0.000000e+000 0.000000e+000 5.846476e-002
    outer loop
      vertex   -2.262348e+002 1.702277e+002 1.000000e+000
      vertex   -2.250086e+002 1.730564e+002 1.000000e+000
      vertex   -2.252046e+002 1.730454e+002 1.000000e+000
    endloop
  endfacet
  facet normal 0.000000e+000 0.000000e+000 9.569689e-001
    outer loop
      vertex   -2.252046e+002 1.730454e+002 1.000000e+000
      vertex   -2.254005e+002 1.730564e+002 1.000000e+000
      vertex   -2.262348e+002 1.702277e+002 1.000000e+000
    endloop
  endfacet
  facet normal 0.000000e+000 0.000000e+000 6.645583e-002
    outer loop
      vertex   -2.262348e+002 1.702277e+002 1.000000e+000
      vertex   -2.254005e+002 1.730564e+002 1.000000e+000
      vertex   -2.255940e+002 1.730893e+002 1.000000e+000
    endloop
  endfacet
  facet normal 0.000000e+000 -0.000000e+000 8.576554e-001
    outer loop
      vertex   -2.262348e+002 1.702277e+002 1.000000e+000
      vertex   -2.255940e+002 1.730893e+002 1.000000e+000
      vertex   -2.271411e+002 1.710899e+002 1.000000e+000
    endloop
  endfacet
  facet normal 0.000000e+000 0.000000e+000 7.406408e-002
    outer loop
      vertex   -2.271411e+002 1.710899e+002 1.000000e+000
      vertex   -2.255940e+002 1.730893e+002 1.000000e+000
      vertex   -2.257826e+002 1.731436e+002 1.000000e+000
    endloop
  endfacet
  facet normal 0.000000e+000 0.000000e+000 7.919800e-002
    outer loop
      vertex   -2.271411e+002 1.710899e+002 1.000000e+000
      vertex   -2.257826e+002 1.731436e+002 1.000000e+000
      vertex   -2.259639e+002 1.732187e+002 1.000000e+000
    endloop
  endfacet
  facet normal 0.000000e+000 0.000000e+000 1.000000e+000
    outer loop
      vertex   -2.259639e+002 1.732187e+002 1.000000e+000
      vertex   -2.261356e+002 1.733136e+002 1.000000e+000
      vertex   -2.271411e+002 1.710899e+002 1.000000e+000
    endloop
  endfacet
  facet normal 0.000000e+000 -0.000000e+000 9.385432e-001
    outer loop
      vertex   -2.271411e+002 1.710899e+002 1.000000e+000
      vertex   -2.261356e+002 1.733136e+002 1.000000e+000
      vertex   -2.280330e+002 1.719670e+002 1.000000e+000
    endloop
  endfacet
  facet normal 0.000000e+000 0.000000e+000 8.162638e-002
    outer loop
      vertex   -2.280330e+002 1.719670e+002 1.000000e+000
      vertex   -2.261356e+002 1.733136e+002 1.000000e+000
      vertex   -2.262957e+002 1.734272e+002 1.000000e+000
    endloop
  endfacet
  facet normal -6.646485e-001 -7.471562e-001 -0.000000e+000
    outer loop
      vertex   -2.243795e+002 1.685494e+002 1.000000e+000
      vertex   -2.253141e+002 1.693809e+002 1.000000e+000
      vertex   -2.243795e+002 1.685494e+002 0.000000e+000
    endloop
  endfacet
  facet normal -4.150167e-001 -4.665358e-001 -5.551115e-017
    outer loop
      vertex   -2.243795e+002 1.685494e+002 0.000000e+000
      vertex   -2.253141e+002 1.693809e+002 1.000000e+000
      vertex   -2.253141e+002 1.693809e+002 0.000000e+000
    endloop
  endfacet
  facet normal -5.288054e-001 -5.748631e-001 0.000000e+000
    outer loop
      vertex   -2.253141e+002 1.693809e+002 0.000000e+000
      vertex   -2.253141e+002 1.693809e+002 1.000000e+000
      vertex   -2.262348e+002 1.702277e+002 1.000000e+000
    endloop
  endfacet
  facet normal -4.227362e-001 -4.595555e-001 0.000000e+000
    outer loop
      vertex   -2.253141e+002 1.693809e+002 0.000000e+000
      vertex   -2.262348e+002 1.702277e+002 1.000000e+000
      vertex   -2.262348e+002 1.702277e+002 0.000000e+000
    endloop
  endfacet
  facet normal -5.383321e-001 -5.659533e-001 0.000000e+000
    outer loop
      vertex   -2.262348e+002 1.702277e+002 0.000000e+000
      vertex   -2.262348e+002 1.702277e+002 1.000000e+000
      vertex   -2.271411e+002 1.710899e+002 1.000000e+000
    endloop
  endfacet
  facet normal -4.303504e-001 -4.524312e-001 0.000000e+000
    outer loop
      vertex   -2.262348e+002 1.702277e+002 0.000000e+000
      vertex   -2.271411e+002 1.710899e+002 1.000000e+000
      vertex   -2.271411e+002 1.710899e+002 0.000000e+000
    endloop
  endfacet
  facet normal -5.476891e-001 -5.569025e-001 0.000000e+000
    outer loop
      vertex   -2.271411e+002 1.710899e+002 0.000000e+000
      vertex   -2.271411e+002 1.710899e+002 1.000000e+000
      vertex   -2.280330e+002 1.719670e+002 1.000000e+000
    endloop
  endfacet
  facet normal -4.378313e-001 -4.451967e-001 0.000000e+000
    outer loop
      vertex   -2.271411e+002 1.710899e+002 0.000000e+000
      vertex   -2.280330e+002 1.719670e+002 1.000000e+000
      vertex   -2.280330e+002 1.719670e+002 0.000000e+000
    endloop
  endfacet
  facet normal -5.569025e-001 -5.476891e-001 0.000000e+000
    outer loop
      vertex   -2.280330e+002 1.719670e+002 0.000000e+000
      vertex   -2.280330e+002 1.719670e+002 1.000000e+000
      vertex   -2.289101e+002 1.728589e+002 1.000000e+000
    endloop
  endfacet
  facet normal -4.451967e-001 -4.378313e-001 0.000000e+000
    outer loop
      vertex   -2.280330e+002 1.719670e+002 0.000000e+000
      vertex   -2.289101e+002 1.728589e+002 1.000000e+000
      vertex   -2.289101e+002 1.728589e+002 0.000000e+000
    endloop
  endfacet
  facet normal -5.659533e-001 -5.383321e-001 0.000000e+000
    outer loop
      vertex   -2.289101e+002 1.728589e+002 0.000000e+000
      vertex   -2.289101e+002 1.728589e+002 1.000000e+000
      vertex   -2.297723e+002 1.737652e+002 1.000000e+000
    endloop
  endfacet
  facet normal -4.524312e-001 -4.303504e-001 0.000000e+000
    outer loop
      vertex   -2.289101e+002 1.728589e+002 0.000000e+000
      vertex   -2.297723e+002 1.737652e+002 1.000000e+000
      vertex   -2.297723e+002 1.737652e+002 0.000000e+000
    endloop
  endfacet
  facet normal -5.748631e-001 -5.288054e-001 0.000000e+000
    outer loop
      vertex   -2.297723e+002 1.737652e+002 0.000000e+000
      vertex   -2.297723e+002 1.737652e+002 1.000000e+000
      vertex   -2.306191e+002 1.746859e+002 1.000000e+000
    endloop
  endfacet
  facet normal -4.595555e-001 -4.227362e-001 0.000000e+000
    outer loop
      vertex   -2.297723e+002 1.737652e+002 0.000000e+000
      vertex   -2.306191e+002 1.746859e+002 1.000000e+000
      vertex   -2.306191e+002 1.746859e+002 0.000000e+000
    endloop
  endfacet
  facet normal -5.835981e-001 -5.191519e-001 0.000000e+000
    outer loop
      vertex   -2.306191e+002 1.746859e+002 0.000000e+000
      vertex   -2.306191e+002 1.746859e+002 1.000000e+000
      vertex   -2.314506e+002 1.756205e+002 1.000000e+000
    endloop
  endfacet
  facet normal -4.665358e-001 -4.150167e-001 5.551115e-017
    outer loop
      vertex   -2.306191e+002 1.746859e+002 0.000000e+000
      vertex   -2.314506e+002 1.756205e+002 1.000000e+000
      vertex   -2.314506e+002 1.756205e+002 0.000000e+000
    endloop
  endfacet
  facet normal -9.450718e-001 3.268628e-001 0.000000e+000
    outer loop
      vertex   -2.285129e+002 1.841142e+002 0.000000e+000
      vertex   -2.314506e+002 1.756205e+002 0.000000e+000
      vertex   -2.285129e+002 1.841142e+002 1.000000e+000
    endloop
  endfacet
  facet normal -1.045111e-001 3.614624e-002 5.551115e-017
    outer loop
      vertex   -2.285129e+002 1.841142e+002 1.000000e+000
      vertex   -2.314506e+002 1.756205e+002 0.000000e+000
      vertex   -2.314506e+002 1.756205e+002 1.000000e+000
    endloop
  endfacet
  facet normal 7.456479e-001 6.663402e-001 -0.000000e+000
    outer loop
      vertex   -2.265728e+002 1.737043e+002 0.000000e+000
      vertex   -2.265728e+002 1.737043e+002 1.000000e+000
      vertex   -2.264420e+002 1.735580e+002 0.000000e+000
    endloop
  endfacet
  facet normal 1.435928e-001 1.283202e-001 -0.000000e+000
    outer loop
      vertex   -2.264420e+002 1.735580e+002 0.000000e+000
      vertex   -2.265728e+002 1.737043e+002 1.000000e+000
      vertex   -2.264420e+002 1.735580e+002 1.000000e+000
    endloop
  endfacet
  facet normal 6.663402e-001 7.456479e-001 -0.000000e+000
    outer loop
      vertex   -2.264420e+002 1.735580e+002 0.000000e+000
      vertex   -2.264420e+002 1.735580e+002 1.000000e+000
      vertex   -2.262957e+002 1.734272e+002 0.000000e+000
    endloop
  endfacet
  facet normal 1.283202e-001 1.435928e-001 -0.000000e+000
    outer loop
      vertex   -2.262957e+002 1.734272e+002 0.000000e+000
      vertex   -2.264420e+002 1.735580e+002 1.000000e+000
      vertex   -2.262957e+002 1.734272e+002 1.000000e+000
    endloop
  endfacet
  facet normal 5.787053e-001 8.155367e-001 -0.000000e+000
    outer loop
      vertex   -2.262957e+002 1.734272e+002 0.000000e+000
      vertex   -2.262957e+002 1.734272e+002 1.000000e+000
      vertex   -2.261356e+002 1.733136e+002 0.000000e+000
    endloop
  endfacet
  facet normal 1.114453e-001 1.570536e-001 -0.000000e+000
    outer loop
      vertex   -2.261356e+002 1.733136e+002 0.000000e+000
      vertex   -2.262957e+002 1.734272e+002 1.000000e+000
      vertex   -2.261356e+002 1.733136e+002 1.000000e+000
    endloop
  endfacet
  facet normal 4.837206e-001 8.752225e-001 -0.000000e+000
    outer loop
      vertex   -2.261356e+002 1.733136e+002 0.000000e+000
      vertex   -2.261356e+002 1.733136e+002 1.000000e+000
      vertex   -2.259639e+002 1.732187e+002 0.000000e+000
    endloop
  endfacet
  facet normal 9.314831e-002 1.685384e-001 -0.000000e+000
    outer loop
      vertex   -2.259639e+002 1.732187e+002 0.000000e+000
      vertex   -2.261356e+002 1.733136e+002 1.000000e+000
      vertex   -2.259639e+002 1.732187e+002 1.000000e+000
    endloop
  endfacet
  facet normal 3.826768e-001 9.238822e-001 -0.000000e+000
    outer loop
      vertex   -2.259639e+002 1.732187e+002 0.000000e+000
      vertex   -2.259639e+002 1.732187e+002 1.000000e+000
      vertex   -2.257826e+002 1.731436e+002 0.000000e+000
    endloop
  endfacet
  facet normal 7.369784e-002 1.779259e-001 -0.000000e+000
    outer loop
      vertex   -2.257826e+002 1.731436e+002 0.000000e+000
      vertex   -2.259639e+002 1.732187e+002 1.000000e+000
      vertex   -2.257826e+002 1.731436e+002 1.000000e+000
    endloop
  endfacet
  facet normal 2.768155e-001 9.609231e-001 -0.000000e+000
    outer loop
      vertex   -2.257826e+002 1.731436e+002 0.000000e+000
      vertex   -2.257826e+002 1.731436e+002 1.000000e+000
      vertex   -2.255940e+002 1.730893e+002 0.000000e+000
    endloop
  endfacet
  facet normal 5.330464e-002 1.850390e-001 -0.000000e+000
    outer loop
      vertex   -2.255940e+002 1.730893e+002 0.000000e+000
      vertex   -2.257826e+002 1.731436e+002 1.000000e+000
      vertex   -2.255940e+002 1.730893e+002 1.000000e+000
    endloop
  endfacet
  facet normal 1.674746e-001 9.858764e-001 -0.000000e+000
    outer loop
      vertex   -2.255940e+002 1.730893e+002 0.000000e+000
      vertex   -2.255940e+002 1.730893e+002 1.000000e+000
      vertex   -2.254005e+002 1.730564e+002 0.000000e+000
    endloop
  endfacet
  facet normal 3.225220e-002 1.898597e-001 -0.000000e+000
    outer loop
      vertex   -2.254005e+002 1.730564e+002 0.000000e+000
      vertex   -2.255940e+002 1.730893e+002 1.000000e+000
      vertex   -2.254005e+002 1.730564e+002 1.000000e+000
    endloop
  endfacet
  facet normal 5.605998e-002 9.984274e-001 -0.000000e+000
    outer loop
      vertex   -2.254005e+002 1.730564e+002 0.000000e+000
      vertex   -2.254005e+002 1.730564e+002 1.000000e+000
      vertex   -2.252046e+002 1.730454e+002 0.000000e+000
    endloop
  endfacet
  facet normal 1.079566e-002 1.922707e-001 -0.000000e+000
    outer loop
      vertex   -2.252046e+002 1.730454e+002 0.000000e+000
      vertex   -2.254005e+002 1.730564e+002 1.000000e+000
      vertex   -2.252046e+002 1.730454e+002 1.000000e+000
    endloop
  endfacet
  facet normal -5.605998e-002 9.984274e-001 0.000000e+000
    outer loop
      vertex   -2.252046e+002 1.730454e+002 0.000000e+000
      vertex   -2.252046e+002 1.730454e+002 1.000000e+000
      vertex   -2.250086e+002 1.730564e+002 0.000000e+000
    endloop
  endfacet
  facet normal -1.079566e-002 1.922707e-001 0.000000e+000
    outer loop
      vertex   -2.250086e+002 1.730564e+002 0.000000e+000
      vertex   -2.252046e+002 1.730454e+002 1.000000e+000
      vertex   -2.250086e+002 1.730564e+002 1.000000e+000
    endloop
  endfacet
  facet normal -1.674874e-001 9.858742e-001 0.000000e+000
    outer loop
      vertex   -2.250086e+002 1.730564e+002 0.000000e+000
      vertex   -2.250086e+002 1.730564e+002 1.000000e+000
      vertex   -2.248152e+002 1.730893e+002 0.000000e+000
    endloop
  endfacet
  facet normal -3.225229e-002 1.898453e-001 0.000000e+000
    outer loop
      vertex   -2.248152e+002 1.730893e+002 0.000000e+000
      vertex   -2.250086e+002 1.730564e+002 1.000000e+000
      vertex   -2.248152e+002 1.730893e+002 1.000000e+000
    endloop
  endfacet
  facet normal -2.767949e-001 9.609290e-001 0.000000e+000
    outer loop
      vertex   -2.248152e+002 1.730893e+002 0.000000e+000
      vertex   -2.248152e+002 1.730893e+002 1.000000e+000
      vertex   -2.246266e+002 1.731436e+002 0.000000e+000
    endloop
  endfacet
  facet normal -5.330449e-002 1.850534e-001 0.000000e+000
    outer loop
      vertex   -2.246266e+002 1.731436e+002 0.000000e+000
      vertex   -2.248152e+002 1.730893e+002 1.000000e+000
      vertex   -2.246266e+002 1.731436e+002 1.000000e+000
    endloop
  endfacet
  facet normal -3.827043e-001 9.238709e-001 0.000000e+000
    outer loop
      vertex   -2.246266e+002 1.731436e+002 0.000000e+000
      vertex   -2.246266e+002 1.731436e+002 1.000000e+000
      vertex   -2.244453e+002 1.732187e+002 0.000000e+000
    endloop
  endfacet
  facet normal -7.369804e-002 1.779114e-001 0.000000e+000
    outer loop
      vertex   -2.244453e+002 1.732187e+002 0.000000e+000
      vertex   -2.246266e+002 1.731436e+002 1.000000e+000
      vertex   -2.244453e+002 1.732187e+002 1.000000e+000
    endloop
  endfacet
  facet normal -4.837206e-001 8.752225e-001 0.000000e+000
    outer loop
      vertex   -2.244453e+002 1.732187e+002 0.000000e+000
      vertex   -2.244453e+002 1.732187e+002 1.000000e+000
      vertex   -2.242735e+002 1.733136e+002 0.000000e+000
    endloop
  endfacet
  facet normal -9.314831e-002 1.685384e-001 0.000000e+000
    outer loop
      vertex   -2.242735e+002 1.733136e+002 0.000000e+000
      vertex   -2.244453e+002 1.732187e+002 1.000000e+000
      vertex   -2.242735e+002 1.733136e+002 1.000000e+000
    endloop
  endfacet
  facet normal -5.787053e-001 8.155367e-001 0.000000e+000
    outer loop
      vertex   -2.242735e+002 1.733136e+002 0.000000e+000
      vertex   -2.242735e+002 1.733136e+002 1.000000e+000
      vertex   -2.241135e+002 1.734272e+002 0.000000e+000
    endloop
  endfacet
  facet normal -1.114453e-001 1.570536e-001 0.000000e+000
    outer loop
      vertex   -2.241135e+002 1.734272e+002 0.000000e+000
      vertex   -2.242735e+002 1.733136e+002 1.000000e+000
      vertex   -2.241135e+002 1.734272e+002 1.000000e+000
    endloop
  endfacet
  facet normal -6.663402e-001 7.456479e-001 0.000000e+000
    outer loop
      vertex   -2.241135e+002 1.734272e+002 0.000000e+000
      vertex   -2.241135e+002 1.734272e+002 1.000000e+000
      vertex   -2.239671e+002 1.735580e+002 0.000000e+000
    endloop
  endfacet
  facet normal -1.283202e-001 1.435928e-001 0.000000e+000
    outer loop
      vertex   -2.239671e+002 1.735580e+002 0.000000e+000
      vertex   -2.241135e+002 1.734272e+002 1.000000e+000
      vertex   -2.239671e+002 1.735580e+002 1.000000e+000
    endloop
  endfacet
  facet normal -7.456479e-001 6.663402e-001 0.000000e+000
    outer loop
      vertex   -2.239671e+002 1.735580e+002 0.000000e+000
      vertex   -2.239671e+002 1.735580e+002 1.000000e+000
      vertex   -2.238364e+002 1.737043e+002 0.000000e+000
    endloop
  endfacet
  facet normal -1.435928e-001 1.283202e-001 0.000000e+000
    outer loop
      vertex   -2.238364e+002 1.737043e+002 0.000000e+000
      vertex   -2.239671e+002 1.735580e+002 1.000000e+000
      vertex   -2.238364e+002 1.737043e+002 1.000000e+000
    endloop
  endfacet
  facet normal -8.155367e-001 5.787053e-001 0.000000e+000
    outer loop
      vertex   -2.238364e+002 1.737043e+002 0.000000e+000
      vertex   -2.238364e+002 1.737043e+002 1.000000e+000
      vertex   -2.237228e+002 1.738644e+002 0.000000e+000
    endloop
  endfacet
  facet normal -1.570536e-001 1.114453e-001 0.000000e+000
    outer loop
      vertex   -2.237228e+002 1.738644e+002 0.000000e+000
      vertex   -2.238364e+002 1.737043e+002 1.000000e+000
      vertex   -2.237228e+002 1.738644e+002 1.000000e+000
    endloop
  endfacet
  facet normal -8.752225e-001 4.837206e-001 0.000000e+000
    outer loop
      vertex   -2.237228e+002 1.738644e+002 0.000000e+000
      vertex   -2.237228e+002 1.738644e+002 1.000000e+000
      vertex   -2.236279e+002 1.740361e+002 0.000000e+000
    endloop
  endfacet
  facet normal -1.685384e-001 9.314831e-002 0.000000e+000
    outer loop
      vertex   -2.236279e+002 1.740361e+002 0.000000e+000
      vertex   -2.237228e+002 1.738644e+002 1.000000e+000
      vertex   -2.236279e+002 1.740361e+002 1.000000e+000
    endloop
  endfacet
  facet normal -9.238822e-001 3.826768e-001 0.000000e+000
    outer loop
      vertex   -2.236279e+002 1.740361e+002 0.000000e+000
      vertex   -2.236279e+002 1.740361e+002 1.000000e+000
      vertex   -2.235528e+002 1.742174e+002 0.000000e+000
    endloop
  endfacet
  facet normal -1.779259e-001 7.369784e-002 0.000000e+000
    outer loop
      vertex   -2.235528e+002 1.742174e+002 0.000000e+000
      vertex   -2.236279e+002 1.740361e+002 1.000000e+000
      vertex   -2.235528e+002 1.742174e+002 1.000000e+000
    endloop
  endfacet
  facet normal -9.609231e-001 2.768155e-001 0.000000e+000
    outer loop
      vertex   -2.235528e+002 1.742174e+002 0.000000e+000
      vertex   -2.235528e+002 1.742174e+002 1.000000e+000
      vertex   -2.234985e+002 1.744060e+002 0.000000e+000
    endloop
  endfacet
  facet normal -1.850390e-001 5.330464e-002 0.000000e+000
    outer loop
      vertex   -2.234985e+002 1.744060e+002 0.000000e+000
      vertex   -2.235528e+002 1.742174e+002 1.000000e+000
      vertex   -2.234985e+002 1.744060e+002 1.000000e+000
    endloop
  endfacet
  facet normal -9.858764e-001 1.674746e-001 0.000000e+000
    outer loop
      vertex   -2.234985e+002 1.744060e+002 0.000000e+000
      vertex   -2.234985e+002 1.744060e+002 1.000000e+000
      vertex   -2.234656e+002 1.745995e+002 0.000000e+000
    endloop
  endfacet
  facet normal -1.898597e-001 3.225220e-002 0.000000e+000
    outer loop
      vertex   -2.234656e+002 1.745995e+002 0.000000e+000
      vertex   -2.234985e+002 1.744060e+002 1.000000e+000
      vertex   -2.234656e+002 1.745995e+002 1.000000e+000
    endloop
  endfacet
  facet normal -9.984230e-001 5.613748e-002 0.000000e+000
    outer loop
      vertex   -2.234656e+002 1.745995e+002 0.000000e+000
      vertex   -2.234656e+002 1.745995e+002 1.000000e+000
      vertex   -2.234546e+002 1.747954e+002 0.000000e+000
    endloop
  endfacet
  facet normal -1.922706e-001 1.081064e-002 0.000000e+000
    outer loop
      vertex   -2.234546e+002 1.747954e+002 0.000000e+000
      vertex   -2.234656e+002 1.745995e+002 1.000000e+000
      vertex   -2.234546e+002 1.747954e+002 1.000000e+000
    endloop
  endfacet
  facet normal -9.984230e-001 -5.613748e-002 0.000000e+000
    outer loop
      vertex   -2.234546e+002 1.747954e+002 0.000000e+000
      vertex   -2.234546e+002 1.747954e+002 1.000000e+000
      vertex   -2.234656e+002 1.749914e+002 0.000000e+000
    endloop
  endfacet
  facet normal -1.922706e-001 -1.081064e-002 0.000000e+000
    outer loop
      vertex   -2.234656e+002 1.749914e+002 0.000000e+000
      vertex   -2.234546e+002 1.747954e+002 1.000000e+000
      vertex   -2.234656e+002 1.749914e+002 1.000000e+000
    endloop
  endfacet
  facet normal -9.858742e-001 -1.674874e-001 0.000000e+000
    outer loop
      vertex   -2.234656e+002 1.749914e+002 0.000000e+000
      vertex   -2.234656e+002 1.749914e+002 1.000000e+000
      vertex   -2.234985e+002 1.751848e+002 0.000000e+000
    endloop
  endfacet
  facet normal -1.898453e-001 -3.225229e-002 0.000000e+000
    outer loop
      vertex   -2.234985e+002 1.751848e+002 0.000000e+000
      vertex   -2.234656e+002 1.749914e+002 1.000000e+000
      vertex   -2.234985e+002 1.751848e+002 1.000000e+000
    endloop
  endfacet
  facet normal -9.609290e-001 -2.767949e-001 0.000000e+000
    outer loop
      vertex   -2.234985e+002 1.751848e+002 0.000000e+000
      vertex   -2.234985e+002 1.751848e+002 1.000000e+000
      vertex   -2.235528e+002 1.753734e+002 0.000000e+000
    endloop
  endfacet
  facet normal -1.850534e-001 -5.330449e-002 0.000000e+000
    outer loop
      vertex   -2.235528e+002 1.753734e+002 0.000000e+000
      vertex   -2.234985e+002 1.751848e+002 1.000000e+000
      vertex   -2.235528e+002 1.753734e+002 1.000000e+000
    endloop
  endfacet
  facet normal -9.238709e-001 -3.827043e-001 0.000000e+000
    outer loop
      vertex   -2.235528e+002 1.753734e+002 0.000000e+000
      vertex   -2.235528e+002 1.753734e+002 1.000000e+000
      vertex   -2.236279e+002 1.755547e+002 0.000000e+000
    endloop
  endfacet
  facet normal -1.779114e-001 -7.369804e-002 0.000000e+000
    outer loop
      vertex   -2.236279e+002 1.755547e+002 0.000000e+000
      vertex   -2.235528e+002 1.753734e+002 1.000000e+000
      vertex   -2.236279e+002 1.755547e+002 1.000000e+000
    endloop
  endfacet
  facet normal -8.752225e-001 -4.837206e-001 0.000000e+000
    outer loop
      vertex   -2.236279e+002 1.755547e+002 0.000000e+000
      vertex   -2.236279e+002 1.755547e+002 1.000000e+000
      vertex   -2.237228e+002 1.757265e+002 0.000000e+000
    endloop
  endfacet
  facet normal -1.685384e-001 -9.314831e-002 0.000000e+000
    outer loop
      vertex   -2.237228e+002 1.757265e+002 0.000000e+000
      vertex   -2.236279e+002 1.755547e+002 1.000000e+000
      vertex   -2.237228e+002 1.757265e+002 1.000000e+000
    endloop
  endfacet
  facet normal -8.155367e-001 -5.787053e-001 0.000000e+000
    outer loop
      vertex   -2.237228e+002 1.757265e+002 0.000000e+000
      vertex   -2.237228e+002 1.757265e+002 1.000000e+000
      vertex   -2.238364e+002 1.758865e+002 0.000000e+000
    endloop
  endfacet
  facet normal -1.570536e-001 -1.114453e-001 0.000000e+000
    outer loop
      vertex   -2.238364e+002 1.758865e+002 0.000000e+000
      vertex   -2.237228e+002 1.757265e+002 1.000000e+000
      vertex   -2.238364e+002 1.758865e+002 1.000000e+000
    endloop
  endfacet
  facet normal -7.456479e-001 -6.663402e-001 0.000000e+000
    outer loop
      vertex   -2.238364e+002 1.758865e+002 0.000000e+000
      vertex   -2.238364e+002 1.758865e+002 1.000000e+000
      vertex   -2.239671e+002 1.760329e+002 0.000000e+000
    endloop
  endfacet
  facet normal -1.435928e-001 -1.283202e-001 0.000000e+000
    outer loop
      vertex   -2.239671e+002 1.760329e+002 0.000000e+000
      vertex   -2.238364e+002 1.758865e+002 1.000000e+000
      vertex   -2.239671e+002 1.760329e+002 1.000000e+000
    endloop
  endfacet
  facet normal -6.663402e-001 -7.456479e-001 0.000000e+000
    outer loop
      vertex   -2.239671e+002 1.760329e+002 0.000000e+000
      vertex   -2.239671e+002 1.760329e+002 1.000000e+000
      vertex   -2.241135e+002 1.761636e+002 0.000000e+000
    endloop
  endfacet
  facet normal -1.283202e-001 -1.435928e-001 0.000000e+000
    outer loop
      vertex   -2.241135e+002 1.761636e+002 0.000000e+000
      vertex   -2.239671e+002 1.760329e+002 1.000000e+000
      vertex   -2.241135e+002 1.761636e+002 1.000000e+000
    endloop
  endfacet
  facet normal -5.787053e-001 -8.155367e-001 0.000000e+000
    outer loop
      vertex   -2.241135e+002 1.761636e+002 0.000000e+000
      vertex   -2.241135e+002 1.761636e+002 1.000000e+000
      vertex   -2.242735e+002 1.762772e+002 0.000000e+000
    endloop
  endfacet
  facet normal -1.114453e-001 -1.570536e-001 0.000000e+000
    outer loop
      vertex   -2.242735e+002 1.762772e+002 0.000000e+000
      vertex   -2.241135e+002 1.761636e+002 1.000000e+000
      vertex   -2.242735e+002 1.762772e+002 1.000000e+000
    endloop
  endfacet
  facet normal -4.837206e-001 -8.752225e-001 0.000000e+000
    outer loop
      vertex   -2.242735e+002 1.762772e+002 0.000000e+000
      vertex   -2.242735e+002 1.762772e+002 1.000000e+000
      vertex   -2.244453e+002 1.763721e+002 0.000000e+000
    endloop
  endfacet
  facet normal -9.314831e-002 -1.685384e-001 0.000000e+000
    outer loop
      vertex   -2.244453e+002 1.763721e+002 0.000000e+000
      vertex   -2.242735e+002 1.762772e+002 1.000000e+000
      vertex   -2.244453e+002 1.763721e+002 1.000000e+000
    endloop
  endfacet
  facet normal -3.827043e-001 -9.238709e-001 0.000000e+000
    outer loop
      vertex   -2.244453e+002 1.763721e+002 0.000000e+000
      vertex   -2.244453e+002 1.763721e+002 1.000000e+000
      vertex   -2.246266e+002 1.764472e+002 0.000000e+000
    endloop
  endfacet
  facet normal -7.369804e-002 -1.779114e-001 0.000000e+000
    outer loop
      vertex   -2.246266e+002 1.764472e+002 0.000000e+000
      vertex   -2.244453e+002 1.763721e+002 1.000000e+000
      vertex   -2.246266e+002 1.764472e+002 1.000000e+000
    endloop
  endfacet
  facet normal -2.767949e-001 -9.609290e-001 0.000000e+000
    outer loop
      vertex   -2.246266e+002 1.764472e+002 0.000000e+000
      vertex   -2.246266e+002 1.764472e+002 1.000000e+000
      vertex   -2.248152e+002 1.765015e+002 0.000000e+000
    endloop
  endfacet
  facet normal -5.330449e-002 -1.850534e-001 0.000000e+000
    outer loop
      vertex   -2.248152e+002 1.765015e+002 0.000000e+000
      vertex   -2.246266e+002 1.764472e+002 1.000000e+000
      vertex   -2.248152e+002 1.765015e+002 1.000000e+000
    endloop
  endfacet
  facet normal -1.674874e-001 -9.858742e-001 0.000000e+000
    outer loop
      vertex   -2.248152e+002 1.765015e+002 0.000000e+000
      vertex   -2.248152e+002 1.765015e+002 1.000000e+000
      vertex   -2.250086e+002 1.765344e+002 0.000000e+000
    endloop
  endfacet
  facet normal -3.225229e-002 -1.898453e-001 0.000000e+000
    outer loop
      vertex   -2.250086e+002 1.765344e+002 0.000000e+000
      vertex   -2.248152e+002 1.765015e+002 1.000000e+000
      vertex   -2.250086e+002 1.765344e+002 1.000000e+000
    endloop
  endfacet
  facet normal -5.613748e-002 -9.984230e-001 0.000000e+000
    outer loop
      vertex   -2.250086e+002 1.765344e+002 0.000000e+000
      vertex   -2.250086e+002 1.765344e+002 1.000000e+000
      vertex   -2.252046e+002 1.765454e+002 0.000000e+000
    endloop
  endfacet
  facet normal -1.081064e-002 -1.922706e-001 0.000000e+000
    outer loop
      vertex   -2.252046e+002 1.765454e+002 0.000000e+000
      vertex   -2.250086e+002 1.765344e+002 1.000000e+000
      vertex   -2.252046e+002 1.765454e+002 1.000000e+000
    endloop
  endfacet
  facet normal 5.613748e-002 -9.984230e-001 0.000000e+000
    outer loop
      vertex   -2.252046e+002 1.765454e+002 0.000000e+000
      vertex   -2.252046e+002 1.765454e+002 1.000000e+000
      vertex   -2.254005e+002 1.765344e+002 0.000000e+000
    endloop
  endfacet
  facet normal 1.081064e-002 -1.922706e-001 0.000000e+000
    outer loop
      vertex   -2.254005e+002 1.765344e+002 0.000000e+000
      vertex   -2.252046e+002 1.765454e+002 1.000000e+000
      vertex   -2.254005e+002 1.765344e+002 1.000000e+000
    endloop
  endfacet
  facet normal 1.674746e-001 -9.858764e-001 0.000000e+000
    outer loop
      vertex   -2.254005e+002 1.765344e+002 0.000000e+000
      vertex   -2.254005e+002 1.765344e+002 1.000000e+000
      vertex   -2.255940e+002 1.765015e+002 0.000000e+000
    endloop
  endfacet
  facet normal 3.225220e-002 -1.898597e-001 0.000000e+000
    outer loop
      vertex   -2.255940e+002 1.765015e+002 0.000000e+000
      vertex   -2.254005e+002 1.765344e+002 1.000000e+000
      vertex   -2.255940e+002 1.765015e+002 1.000000e+000
    endloop
  endfacet
  facet normal 2.768155e-001 -9.609231e-001 0.000000e+000
    outer loop
      vertex   -2.255940e+002 1.765015e+002 0.000000e+000
      vertex   -2.255940e+002 1.765015e+002 1.000000e+000
      vertex   -2.257826e+002 1.764472e+002 0.000000e+000
    endloop
  endfacet
  facet normal 5.330464e-002 -1.850390e-001 0.000000e+000
    outer loop
      vertex   -2.257826e+002 1.764472e+002 0.000000e+000
      vertex   -2.255940e+002 1.765015e+002 1.000000e+000
      vertex   -2.257826e+002 1.764472e+002 1.000000e+000
    endloop
  endfacet
  facet normal 3.826768e-001 -9.238822e-001 0.000000e+000
    outer loop
      vertex   -2.257826e+002 1.764472e+002 0.000000e+000
      vertex   -2.257826e+002 1.764472e+002 1.000000e+000
      vertex   -2.259639e+002 1.763721e+002 0.000000e+000
    endloop
  endfacet
  facet normal 7.369784e-002 -1.779259e-001 0.000000e+000
    outer loop
      vertex   -2.259639e+002 1.763721e+002 0.000000e+000
      vertex   -2.257826e+002 1.764472e+002 1.000000e+000
      vertex   -2.259639e+002 1.763721e+002 1.000000e+000
    endloop
  endfacet
  facet normal 4.837206e-001 -8.752225e-001 0.000000e+000
    outer loop
      vertex   -2.259639e+002 1.763721e+002 0.000000e+000
      vertex   -2.259639e+002 1.763721e+002 1.000000e+000
      vertex   -2.261356e+002 1.762772e+002 0.000000e+000
    endloop
  endfacet
  facet normal 9.314831e-002 -1.685384e-001 0.000000e+000
    outer loop
      vertex   -2.261356e+002 1.762772e+002 0.000000e+000
      vertex   -2.259639e+002 1.763721e+002 1.000000e+000
      vertex   -2.261356e+002 1.762772e+002 1.000000e+000
    endloop
  endfacet
  facet normal 5.787053e-001 -8.155367e-001 0.000000e+000
    outer loop
      vertex   -2.261356e+002 1.762772e+002 0.000000e+000
      vertex   -2.261356e+002 1.762772e+002 1.000000e+000
      vertex   -2.262957e+002 1.761636e+002 0.000000e+000
    endloop
  endfacet
  facet normal 1.114453e-001 -1.570536e-001 0.000000e+000
    outer loop
      vertex   -2.262957e+002 1.761636e+002 0.000000e+000
      vertex   -2.261356e+002 1.762772e+002 1.000000e+000
      vertex   -2.262957e+002 1.761636e+002 1.000000e+000
    endloop
  endfacet
  facet normal 6.663402e-001 -7.456479e-001 0.000000e+000
    outer loop
      vertex   -2.262957e+002 1.761636e+002 0.000000e+000
      vertex   -2.262957e+002 1.761636e+002 1.000000e+000
      vertex   -2.264420e+002 1.760329e+002 0.000000e+000
    endloop
  endfacet
  facet normal 1.283202e-001 -1.435928e-001 0.000000e+000
    outer loop
      vertex   -2.264420e+002 1.760329e+002 0.000000e+000
      vertex   -2.262957e+002 1.761636e+002 1.000000e+000
      vertex   -2.264420e+002 1.760329e+002 1.000000e+000
    endloop
  endfacet
  facet normal 7.456479e-001 -6.663402e-001 0.000000e+000
    outer loop
      vertex   -2.264420e+002 1.760329e+002 0.000000e+000
      vertex   -2.264420e+002 1.760329e+002 1.000000e+000
      vertex   -2.265728e+002 1.758865e+002 0.000000e+000
    endloop
  endfacet
  facet normal 1.435928e-001 -1.283202e-001 0.000000e+000
    outer loop
      vertex   -2.265728e+002 1.758865e+002 0.000000e+000
      vertex   -2.264420e+002 1.760329e+002 1.000000e+000
      vertex   -2.265728e+002 1.758865e+002 1.000000e+000
    endloop
  endfacet
  facet normal 8.155367e-001 -5.787053e-001 0.000000e+000
    outer loop
      vertex   -2.265728e+002 1.758865e+002 0.000000e+000
      vertex   -2.265728e+002 1.758865e+002 1.000000e+000
      vertex   -2.266864e+002 1.757265e+002 0.000000e+000
    endloop
  endfacet
  facet normal 1.570536e-001 -1.114453e-001 0.000000e+000
    outer loop
      vertex   -2.266864e+002 1.757265e+002 0.000000e+000
      vertex   -2.265728e+002 1.758865e+002 1.000000e+000
      vertex   -2.266864e+002 1.757265e+002 1.000000e+000
    endloop
  endfacet
  facet normal 8.752225e-001 -4.837206e-001 0.000000e+000
    outer loop
      vertex   -2.266864e+002 1.757265e+002 0.000000e+000
      vertex   -2.266864e+002 1.757265e+002 1.000000e+000
      vertex   -2.267813e+002 1.755547e+002 0.000000e+000
    endloop
  endfacet
  facet normal 1.685384e-001 -9.314831e-002 0.000000e+000
    outer loop
      vertex   -2.267813e+002 1.755547e+002 0.000000e+000
      vertex   -2.266864e+002 1.757265e+002 1.000000e+000
      vertex   -2.267813e+002 1.755547e+002 1.000000e+000
    endloop
  endfacet
  facet normal 9.238709e-001 -3.827043e-001 0.000000e+000
    outer loop
      vertex   -2.267813e+002 1.755547e+002 0.000000e+000
      vertex   -2.267813e+002 1.755547e+002 1.000000e+000
      vertex   -2.268564e+002 1.753734e+002 0.000000e+000
    endloop
  endfacet
  facet normal 1.779114e-001 -7.369804e-002 0.000000e+000
    outer loop
      vertex   -2.268564e+002 1.753734e+002 0.000000e+000
      vertex   -2.267813e+002 1.755547e+002 1.000000e+000
      vertex   -2.268564e+002 1.753734e+002 1.000000e+000
    endloop
  endfacet
  facet normal 9.609290e-001 -2.767949e-001 0.000000e+000
    outer loop
      vertex   -2.268564e+002 1.753734e+002 0.000000e+000
      vertex   -2.268564e+002 1.753734e+002 1.000000e+000
      vertex   -2.269107e+002 1.751848e+002 0.000000e+000
    endloop
  endfacet
  facet normal 1.850534e-001 -5.330449e-002 0.000000e+000
    outer loop
      vertex   -2.269107e+002 1.751848e+002 0.000000e+000
      vertex   -2.268564e+002 1.753734e+002 1.000000e+000
      vertex   -2.269107e+002 1.751848e+002 1.000000e+000
    endloop
  endfacet
  facet normal 9.858742e-001 -1.674874e-001 0.000000e+000
    outer loop
      vertex   -2.269107e+002 1.751848e+002 0.000000e+000
      vertex   -2.269107e+002 1.751848e+002 1.000000e+000
      vertex   -2.269436e+002 1.749914e+002 0.000000e+000
    endloop
  endfacet
  facet normal 1.898453e-001 -3.225229e-002 0.000000e+000
    outer loop
      vertex   -2.269436e+002 1.749914e+002 0.000000e+000
      vertex   -2.269107e+002 1.751848e+002 1.000000e+000
      vertex   -2.269436e+002 1.749914e+002 1.000000e+000
    endloop
  endfacet
  facet normal 9.984274e-001 -5.605998e-002 0.000000e+000
    outer loop
      vertex   -2.269436e+002 1.749914e+002 0.000000e+000
      vertex   -2.269436e+002 1.749914e+002 1.000000e+000
      vertex   -2.269546e+002 1.747954e+002 0.000000e+000
    endloop
  endfacet
  facet normal 1.922707e-001 -1.079566e-002 0.000000e+000
    outer loop
      vertex   -2.269546e+002 1.747954e+002 0.000000e+000
      vertex   -2.269436e+002 1.749914e+002 1.000000e+000
      vertex   -2.269546e+002 1.747954e+002 1.000000e+000
    endloop
  endfacet
  facet normal 9.984274e-001 5.605998e-002 -0.000000e+000
    outer loop
      vertex   -2.269546e+002 1.747954e+002 0.000000e+000
      vertex   -2.269546e+002 1.747954e+002 1.000000e+000
      vertex   -2.269436e+002 1.745995e+002 0.000000e+000
    endloop
  endfacet
  facet normal 1.922707e-001 1.079566e-002 -0.000000e+000
    outer loop
      vertex   -2.269436e+002 1.745995e+002 0.000000e+000
      vertex   -2.269546e+002 1.747954e+002 1.000000e+000
      vertex   -2.269436e+002 1.745995e+002 1.000000e+000
    endloop
  endfacet
  facet normal 9.858764e-001 1.674746e-001 -0.000000e+000
    outer loop
      vertex   -2.269436e+002 1.745995e+002 0.000000e+000
      vertex   -2.269436e+002 1.745995e+002 1.000000e+000
      vertex   -2.269107e+002 1.744060e+002 0.000000e+000
    endloop
  endfacet
  facet normal 1.898597e-001 3.225220e-002 -0.000000e+000
    outer loop
      vertex   -2.269107e+002 1.744060e+002 0.000000e+000
      vertex   -2.269436e+002 1.745995e+002 1.000000e+000
      vertex   -2.269107e+002 1.744060e+002 1.000000e+000
    endloop
  endfacet
  facet normal 9.609231e-001 2.768155e-001 -0.000000e+000
    outer loop
      vertex   -2.269107e+002 1.744060e+002 0.000000e+000
      vertex   -2.269107e+002 1.744060e+002 1.000000e+000
      vertex   -2.268564e+002 1.742174e+002 0.000000e+000
    endloop
  endfacet
  facet normal 1.850390e-001 5.330464e-002 -0.000000e+000
    outer loop
      vertex   -2.268564e+002 1.742174e+002 0.000000e+000
      vertex   -2.269107e+002 1.744060e+002 1.000000e+000
      vertex   -2.268564e+002 1.742174e+002 1.000000e+000
    endloop
  endfacet
  facet normal 9.238822e-001 3.826768e-001 -0.000000e+000
    outer loop
      vertex   -2.268564e+002 1.742174e+002 0.000000e+000
      vertex   -2.268564e+002 1.742174e+002 1.000000e+000
      vertex   -2.267813e+002 1.740361e+002 0.000000e+000
    endloop
  endfacet
  facet normal 1.779259e-001 7.369784e-002 -0.000000e+000
    outer loop
      vertex   -2.267813e+002 1.740361e+002 0.000000e+000
      vertex   -2.268564e+002 1.742174e+002 1.000000e+000
      vertex   -2.267813e+002 1.740361e+002 1.000000e+000
    endloop
  endfacet
  facet normal 8.752225e-001 4.837206e-001 -0.000000e+000
    outer loop
      vertex   -2.267813e+002 1.740361e+002 0.000000e+000
      vertex   -2.267813e+002 1.740361e+002 1.000000e+000
      vertex   -2.266864e+002 1.738644e+002 0.000000e+000
    endloop
  endfacet
  facet normal 1.685384e-001 9.314831e-002 -0.000000e+000
    outer loop
      vertex   -2.266864e+002 1.738644e+002 0.000000e+000
      vertex   -2.267813e+002 1.740361e+002 1.000000e+000
      vertex   -2.266864e+002 1.738644e+002 1.000000e+000
    endloop
  endfacet
  facet normal 8.155367e-001 5.787053e-001 -0.000000e+000
    outer loop
      vertex   -2.266864e+002 1.738644e+002 0.000000e+000
      vertex   -2.266864e+002 1.738644e+002 1.000000e+000
      vertex   -2.265728e+002 1.737043e+002 0.000000e+000
    endloop
  endfacet
  facet normal 1.570536e-001 1.114453e-001 -0.000000e+000
    outer loop
      vertex   -2.265728e+002 1.737043e+002 0.000000e+000
      vertex   -2.266864e+002 1.738644e+002 1.000000e+000
      vertex   -2.265728e+002 1.737043e+002 1.000000e+000
    endloop
  endfacet
  facet normal 0.000000e+000 0.000000e+000 -8.754691e-001
    outer loop
      vertex   -2.253141e+002 1.693809e+002 0.000000e+000
      vertex   -2.244453e+002 1.732187e+002 0.000000e+000
      vertex   -2.243795e+002 1.685494e+002 0.000000e+000
    endloop
  endfacet
  facet normal 0.000000e+000 0.000000e+000 -3.631887e-002
    outer loop
      vertex   -2.243795e+002 1.685494e+002 0.000000e+000
      vertex   -2.244453e+002 1.732187e+002 0.000000e+000
      vertex   -2.242735e+002 1.733136e+002 0.000000e+000
    endloop
  endfacet
  facet normal 0.000000e+000 0.000000e+000 -3.223825e-002
    outer loop
      vertex   -2.243795e+002 1.685494e+002 0.000000e+000
      vertex   -2.242735e+002 1.733136e+002 0.000000e+000
      vertex   -2.241135e+002 1.734272e+002 0.000000e+000
    endloop
  endfacet
  facet normal 0.000000e+000 0.000000e+000 -9.601725e-001
    outer loop
      vertex   -2.262348e+002 1.702277e+002 0.000000e+000
      vertex   -2.248152e+002 1.730893e+002 0.000000e+000
      vertex   -2.253141e+002 1.693809e+002 0.000000e+000
    endloop
  endfacet
  facet normal 0.000000e+000 0.000000e+000 -4.696823e-002
    outer loop
      vertex   -2.253141e+002 1.693809e+002 0.000000e+000
      vertex   -2.248152e+002 1.730893e+002 0.000000e+000
      vertex   -2.246266e+002 1.731436e+002 0.000000e+000
    endloop
  endfacet
  facet normal 0.000000e+000 0.000000e+000 -4.189418e-002
    outer loop
      vertex   -2.253141e+002 1.693809e+002 0.000000e+000
      vertex   -2.246266e+002 1.731436e+002 0.000000e+000
      vertex   -2.244453e+002 1.732187e+002 0.000000e+000
    endloop
  endfacet
  facet normal 0.000000e+000 0.000000e+000 -9.948192e-001
    outer loop
      vertex   -2.271411e+002 1.710899e+002 0.000000e+000
      vertex   -2.255940e+002 1.730893e+002 0.000000e+000
      vertex   -2.262348e+002 1.702277e+002 0.000000e+000
    endloop
  endfacet
  facet normal 0.000000e+000 0.000000e+000 -6.645583e-002
    outer loop
      vertex   -2.262348e+002 1.702277e+002 0.000000e+000
      vertex   -2.255940e+002 1.730893e+002 0.000000e+000
      vertex   -2.254005e+002 1.730564e+002 0.000000e+000
    endloop
  endfacet
  facet normal 0.000000e+000 0.000000e+000 -6.368019e-002
    outer loop
      vertex   -2.262348e+002 1.702277e+002 0.000000e+000
      vertex   -2.254005e+002 1.730564e+002 0.000000e+000
      vertex   -2.252046e+002 1.730454e+002 0.000000e+000
    endloop
  endfacet
  facet normal 0.000000e+000 0.000000e+000 -9.844639e-001
    outer loop
      vertex   -2.280330e+002 1.719670e+002 0.000000e+000
      vertex   -2.261356e+002 1.733136e+002 0.000000e+000
      vertex   -2.271411e+002 1.710899e+002 0.000000e+000
    endloop
  endfacet
  facet normal 0.000000e+000 0.000000e+000 -8.040853e-002
    outer loop
      vertex   -2.271411e+002 1.710899e+002 0.000000e+000
      vertex   -2.261356e+002 1.733136e+002 0.000000e+000
      vertex   -2.259639e+002 1.732187e+002 0.000000e+000
    endloop
  endfacet
  facet normal 0.000000e+000 0.000000e+000 -7.919800e-002
    outer loop
      vertex   -2.271411e+002 1.710899e+002 0.000000e+000
      vertex   -2.259639e+002 1.732187e+002 0.000000e+000
      vertex   -2.257826e+002 1.731436e+002 0.000000e+000
    endloop
  endfacet
  facet normal 0.000000e+000 0.000000e+000 -9.385432e-001
    outer loop
      vertex   -2.289101e+002 1.728589e+002 0.000000e+000
      vertex   -2.266864e+002 1.738644e+002 0.000000e+000
      vertex   -2.280330e+002 1.719670e+002 0.000000e+000
    endloop
  endfacet
  facet normal 0.000000e+000 0.000000e+000 -8.162638e-002
    outer loop
      vertex   -2.280330e+002 1.719670e+002 0.000000e+000
      vertex   -2.266864e+002 1.738644e+002 0.000000e+000
      vertex   -2.265728e+002 1.737043e+002 0.000000e+000
    endloop
  endfacet
  facet normal 0.000000e+000 0.000000e+000 -8.633665e-002
    outer loop
      vertex   -2.280330e+002 1.719670e+002 0.000000e+000
      vertex   -2.265728e+002 1.737043e+002 0.000000e+000
      vertex   -2.264420e+002 1.735580e+002 0.000000e+000
    endloop
  endfacet
  facet normal 0.000000e+000 0.000000e+000 -8.576554e-001
    outer loop
      vertex   -2.297723e+002 1.737652e+002 0.000000e+000
      vertex   -2.269107e+002 1.744060e+002 0.000000e+000
      vertex   -2.289101e+002 1.728589e+002 0.000000e+000
    endloop
  endfacet
  facet normal 0.000000e+000 0.000000e+000 -7.406408e-002
    outer loop
      vertex   -2.289101e+002 1.728589e+002 0.000000e+000
      vertex   -2.269107e+002 1.744060e+002 0.000000e+000
      vertex   -2.268564e+002 1.742174e+002 0.000000e+000
    endloop
  endfacet
  facet normal 0.000000e+000 0.000000e+000 -7.919800e-002
    outer loop
      vertex   -2.289101e+002 1.728589e+002 0.000000e+000
      vertex   -2.268564e+002 1.742174e+002 0.000000e+000
      vertex   -2.267813e+002 1.740361e+002 0.000000e+000
    endloop
  endfacet
  facet normal 0.000000e+000 0.000000e+000 -8.196765e-001
    outer loop
      vertex   -2.306191e+002 1.746859e+002 0.000000e+000
      vertex   -2.269107e+002 1.751848e+002 0.000000e+000
      vertex   -2.297723e+002 1.737652e+002 0.000000e+000
    endloop
  endfacet
  facet normal 0.000000e+000 0.000000e+000 -5.147760e-002
    outer loop
      vertex   -2.297723e+002 1.737652e+002 0.000000e+000
      vertex   -2.269107e+002 1.751848e+002 0.000000e+000
      vertex   -2.269436e+002 1.749914e+002 0.000000e+000
    endloop
  endfacet
  facet normal 0.000000e+000 0.000000e+000 -5.846476e-002
    outer loop
      vertex   -2.297723e+002 1.737652e+002 0.000000e+000
      vertex   -2.269436e+002 1.749914e+002 0.000000e+000
      vertex   -2.269546e+002 1.747954e+002 0.000000e+000
    endloop
  endfacet
  facet normal 0.000000e+000 0.000000e+000 -7.377173e-001
    outer loop
      vertex   -2.314506e+002 1.756205e+002 0.000000e+000
      vertex   -2.267813e+002 1.755547e+002 0.000000e+000
      vertex   -2.306191e+002 1.746859e+002 0.000000e+000
    endloop
  endfacet
  facet normal 0.000000e+000 0.000000e+000 -4.189418e-002
    outer loop
      vertex   -2.306191e+002 1.746859e+002 0.000000e+000
      vertex   -2.267813e+002 1.755547e+002 0.000000e+000
      vertex   -2.268564e+002 1.753734e+002 0.000000e+000
    endloop
  endfacet
  facet normal 0.000000e+000 0.000000e+000 -4.696823e-002
    outer loop
      vertex   -2.306191e+002 1.746859e+002 0.000000e+000
      vertex   -2.268564e+002 1.753734e+002 0.000000e+000
      vertex   -2.269107e+002 1.751848e+002 0.000000e+000
    endloop
  endfacet
  facet normal 0.000000e+000 -0.000000e+000 -5.687227e-001
    outer loop
      vertex   -2.285129e+002 1.841142e+002 0.000000e+000
      vertex   -2.262957e+002 1.761636e+002 0.000000e+000
      vertex   -2.314506e+002 1.756205e+002 0.000000e+000
    endloop
  endfacet
  facet normal 0.000000e+000 0.000000e+000 -2.282677e-002
    outer loop
      vertex   -2.314506e+002 1.756205e+002 0.000000e+000
      vertex   -2.262957e+002 1.761636e+002 0.000000e+000
      vertex   -2.264420e+002 1.760329e+002 0.000000e+000
    endloop
  endfacet
  facet normal 0.000000e+000 0.000000e+000 -2.765779e-002
    outer loop
      vertex   -2.314506e+002 1.756205e+002 0.000000e+000
      vertex   -2.264420e+002 1.760329e+002 0.000000e+000
      vertex   -2.265728e+002 1.758865e+002 0.000000e+000
    endloop
  endfacet
  facet normal 0.000000e+000 0.000000e+000 -2.696260e-001
    outer loop
      vertex   -2.158858e+002 1.714871e+002 0.000000e+000
      vertex   -2.239671e+002 1.760329e+002 0.000000e+000
      vertex   -2.285129e+002 1.841142e+002 0.000000e+000
    endloop
  endfacet
  facet normal 0.000000e+000 0.000000e+000 -6.980378e-003
    outer loop
      vertex   -2.285129e+002 1.841142e+002 0.000000e+000
      vertex   -2.239671e+002 1.760329e+002 0.000000e+000
      vertex   -2.241135e+002 1.761636e+002 0.000000e+000
    endloop
  endfacet
  facet normal 0.000000e+000 0.000000e+000 -9.545452e-003
    outer loop
      vertex   -2.285129e+002 1.841142e+002 0.000000e+000
      vertex   -2.241135e+002 1.761636e+002 0.000000e+000
      vertex   -2.242735e+002 1.762772e+002 0.000000e+000
    endloop
  endfacet
  facet normal 0.000000e+000 0.000000e+000 -9.056218e-001
    outer loop
      vertex   -2.243795e+002 1.685494e+002 0.000000e+000
      vertex   -2.238364e+002 1.737043e+002 0.000000e+000
      vertex   -2.158858e+002 1.714871e+002 0.000000e+000
    endloop
  endfacet
  facet normal 0.000000e+000 0.000000e+000 -2.254989e-002
    outer loop
      vertex   -2.158858e+002 1.714871e+002 0.000000e+000
      vertex   -2.238364e+002 1.737043e+002 0.000000e+000
      vertex   -2.237228e+002 1.738644e+002 0.000000e+000
    endloop
  endfacet
  facet normal 0.000000e+000 0.000000e+000 -2.354492e-002
    outer loop
      vertex   -2.158858e+002 1.714871e+002 0.000000e+000
      vertex   -2.237228e+002 1.738644e+002 0.000000e+000
      vertex   -2.236279e+002 1.740361e+002 0.000000e+000
    endloop
  endfacet
  facet normal 0.000000e+000 -0.000000e+000 -9.984263e-001
    outer loop
      vertex   -2.264420e+002 1.735580e+002 0.000000e+000
      vertex   -2.262957e+002 1.734272e+002 0.000000e+000
      vertex   -2.280330e+002 1.719670e+002 0.000000e+000
    endloop
  endfacet
  facet normal 0.000000e+000 0.000000e+000 -8.162638e-002
    outer loop
      vertex   -2.280330e+002 1.719670e+002 0.000000e+000
      vertex   -2.262957e+002 1.734272e+002 0.000000e+000
      vertex   -2.261356e+002 1.733136e+002 0.000000e+000
    endloop
  endfacet
  facet normal 0.000000e+000 -0.000000e+000 -9.541635e-001
    outer loop
      vertex   -2.257826e+002 1.731436e+002 0.000000e+000
      vertex   -2.255940e+002 1.730893e+002 0.000000e+000
      vertex   -2.271411e+002 1.710899e+002 0.000000e+000
    endloop
  endfacet
  facet normal 0.000000e+000 -0.000000e+000 -9.184690e-001
    outer loop
      vertex   -2.252046e+002 1.730454e+002 0.000000e+000
      vertex   -2.250086e+002 1.730564e+002 0.000000e+000
      vertex   -2.262348e+002 1.702277e+002 0.000000e+000
    endloop
  endfacet
  facet normal 0.000000e+000 0.000000e+000 -5.147760e-002
    outer loop
      vertex   -2.262348e+002 1.702277e+002 0.000000e+000
      vertex   -2.250086e+002 1.730564e+002 0.000000e+000
      vertex   -2.248152e+002 1.730893e+002 0.000000e+000
    endloop
  endfacet
  facet normal 0.000000e+000 -0.000000e+000 -7.082570e-001
    outer loop
      vertex   -2.241135e+002 1.734272e+002 0.000000e+000
      vertex   -2.239671e+002 1.735580e+002 0.000000e+000
      vertex   -2.243795e+002 1.685494e+002 0.000000e+000
    endloop
  endfacet
  facet normal 0.000000e+000 0.000000e+000 -2.282677e-002
    outer loop
      vertex   -2.243795e+002 1.685494e+002 0.000000e+000
      vertex   -2.239671e+002 1.735580e+002 0.000000e+000
      vertex   -2.238364e+002 1.737043e+002 0.000000e+000
    endloop
  endfacet
  facet normal 0.000000e+000 0.000000e+000 -9.972170e-001
    outer loop
      vertex   -2.236279e+002 1.740361e+002 0.000000e+000
      vertex   -2.235528e+002 1.742174e+002 0.000000e+000
      vertex   -2.158858e+002 1.714871e+002 0.000000e+000
    endloop
  endfacet
  facet normal 0.000000e+000 0.000000e+000 -2.402331e-002
    outer loop
      vertex   -2.158858e+002 1.714871e+002 0.000000e+000
      vertex   -2.235528e+002 1.742174e+002 0.000000e+000
      vertex   -2.234985e+002 1.744060e+002 0.000000e+000
    endloop
  endfacet
  facet normal 0.000000e+000 0.000000e+000 -2.348373e-002
    outer loop
      vertex   -2.158858e+002 1.714871e+002 0.000000e+000
      vertex   -2.234985e+002 1.744060e+002 0.000000e+000
      vertex   -2.234656e+002 1.745995e+002 0.000000e+000
    endloop
  endfacet
  facet normal 0.000000e+000 0.000000e+000 -9.449145e-001
    outer loop
      vertex   -2.234656e+002 1.745995e+002 0.000000e+000
      vertex   -2.234546e+002 1.747954e+002 0.000000e+000
      vertex   -2.158858e+002 1.714871e+002 0.000000e+000
    endloop
  endfacet
  facet normal 0.000000e+000 0.000000e+000 -2.097128e-002
    outer loop
      vertex   -2.158858e+002 1.714871e+002 0.000000e+000
      vertex   -2.234546e+002 1.747954e+002 0.000000e+000
      vertex   -2.234656e+002 1.749914e+002 0.000000e+000
    endloop
  endfacet
  facet normal 0.000000e+000 0.000000e+000 -1.911975e-002
    outer loop
      vertex   -2.158858e+002 1.714871e+002 0.000000e+000
      vertex   -2.234656e+002 1.749914e+002 0.000000e+000
      vertex   -2.234985e+002 1.751848e+002 0.000000e+000
    endloop
  endfacet
  facet normal 0.000000e+000 0.000000e+000 -7.434165e-001
    outer loop
      vertex   -2.234985e+002 1.751848e+002 0.000000e+000
      vertex   -2.235528e+002 1.753734e+002 0.000000e+000
      vertex   -2.158858e+002 1.714871e+002 0.000000e+000
    endloop
  endfacet
  facet normal 0.000000e+000 0.000000e+000 -1.460839e-002
    outer loop
      vertex   -2.158858e+002 1.714871e+002 0.000000e+000
      vertex   -2.235528e+002 1.753734e+002 0.000000e+000
      vertex   -2.236279e+002 1.755547e+002 0.000000e+000
    endloop
  endfacet
  facet normal 0.000000e+000 0.000000e+000 -1.210913e-002
    outer loop
      vertex   -2.158858e+002 1.714871e+002 0.000000e+000
      vertex   -2.236279e+002 1.755547e+002 0.000000e+000
      vertex   -2.237228e+002 1.757265e+002 0.000000e+000
    endloop
  endfacet
  facet normal 0.000000e+000 0.000000e+000 -4.419654e-001
    outer loop
      vertex   -2.237228e+002 1.757265e+002 0.000000e+000
      vertex   -2.238364e+002 1.758865e+002 0.000000e+000
      vertex   -2.158858e+002 1.714871e+002 0.000000e+000
    endloop
  endfacet
  facet normal 0.000000e+000 0.000000e+000 -6.980378e-003
    outer loop
      vertex   -2.158858e+002 1.714871e+002 0.000000e+000
      vertex   -2.238364e+002 1.758865e+002 0.000000e+000
      vertex   -2.239671e+002 1.760329e+002 0.000000e+000
    endloop
  endfacet
  facet normal 0.000000e+000 0.000000e+000 -5.396556e-001
    outer loop
      vertex   -2.242735e+002 1.762772e+002 0.000000e+000
      vertex   -2.244453e+002 1.763721e+002 0.000000e+000
      vertex   -2.285129e+002 1.841142e+002 0.000000e+000
    endloop
  endfacet
  facet normal 0.000000e+000 0.000000e+000 -1.460839e-002
    outer loop
      vertex   -2.285129e+002 1.841142e+002 0.000000e+000
      vertex   -2.244453e+002 1.763721e+002 0.000000e+000
      vertex   -2.246266e+002 1.764472e+002 0.000000e+000
    endloop
  endfacet
  facet normal 0.000000e+000 0.000000e+000 -1.697318e-002
    outer loop
      vertex   -2.285129e+002 1.841142e+002 0.000000e+000
      vertex   -2.246266e+002 1.764472e+002 0.000000e+000
      vertex   -2.248152e+002 1.765015e+002 0.000000e+000
    endloop
  endfacet
  facet normal 0.000000e+000 0.000000e+000 -8.136135e-001
    outer loop
      vertex   -2.248152e+002 1.765015e+002 0.000000e+000
      vertex   -2.250086e+002 1.765344e+002 0.000000e+000
      vertex   -2.285129e+002 1.841142e+002 0.000000e+000
    endloop
  endfacet
  facet normal 0.000000e+000 0.000000e+000 -2.097128e-002
    outer loop
      vertex   -2.285129e+002 1.841142e+002 0.000000e+000
      vertex   -2.250086e+002 1.765344e+002 0.000000e+000
      vertex   -2.252046e+002 1.765454e+002 0.000000e+000
    endloop
  endfacet
  facet normal 0.000000e+000 0.000000e+000 -2.244941e-002
    outer loop
      vertex   -2.285129e+002 1.841142e+002 0.000000e+000
      vertex   -2.252046e+002 1.765454e+002 0.000000e+000
      vertex   -2.254005e+002 1.765344e+002 0.000000e+000
    endloop
  endfacet
  facet normal -0.000000e+000 0.000000e+000 -9.755992e-001
    outer loop
      vertex   -2.254005e+002 1.765344e+002 0.000000e+000
      vertex   -2.255940e+002 1.765015e+002 0.000000e+000
      vertex   -2.285129e+002 1.841142e+002 0.000000e+000
    endloop
  endfacet
  facet normal 0.000000e+000 0.000000e+000 -2.402331e-002
    outer loop
      vertex   -2.285129e+002 1.841142e+002 0.000000e+000
      vertex   -2.255940e+002 1.765015e+002 0.000000e+000
      vertex   -2.257826e+002 1.764472e+002 0.000000e+000
    endloop
  endfacet
  facet normal 0.000000e+000 0.000000e+000 -2.404739e-002
    outer loop
      vertex   -2.285129e+002 1.841142e+002 0.000000e+000
      vertex   -2.257826e+002 1.764472e+002 0.000000e+000
      vertex   -2.259639e+002 1.763721e+002 0.000000e+000
    endloop
  endfacet
  facet normal -0.000000e+000 0.000000e+000 -9.825976e-001
    outer loop
      vertex   -2.259639e+002 1.763721e+002 0.000000e+000
      vertex   -2.261356e+002 1.762772e+002 0.000000e+000
      vertex   -2.285129e+002 1.841142e+002 0.000000e+000
    endloop
  endfacet
  facet normal 0.000000e+000 0.000000e+000 -2.254989e-002
    outer loop
      vertex   -2.285129e+002 1.841142e+002 0.000000e+000
      vertex   -2.261356e+002 1.762772e+002 0.000000e+000
      vertex   -2.262957e+002 1.761636e+002 0.000000e+000
    endloop
  endfacet
  facet normal 0.000000e+000 0.000000e+000 -7.828142e-001
    outer loop
      vertex   -2.265728e+002 1.758865e+002 0.000000e+000
      vertex   -2.266864e+002 1.757265e+002 0.000000e+000
      vertex   -2.314506e+002 1.756205e+002 0.000000e+000
    endloop
  endfacet
  facet normal 0.000000e+000 0.000000e+000 -3.631887e-002
    outer loop
      vertex   -2.314506e+002 1.756205e+002 0.000000e+000
      vertex   -2.266864e+002 1.757265e+002 0.000000e+000
      vertex   -2.267813e+002 1.755547e+002 0.000000e+000
    endloop
  endfacet
  facet normal 0.000000e+000 -0.000000e+000 -9.569689e-001
    outer loop
      vertex   -2.269546e+002 1.747954e+002 0.000000e+000
      vertex   -2.269436e+002 1.745995e+002 0.000000e+000
      vertex   -2.297723e+002 1.737652e+002 0.000000e+000
    endloop
  endfacet
  facet normal 0.000000e+000 0.000000e+000 -6.645583e-002
    outer loop
      vertex   -2.297723e+002 1.737652e+002 0.000000e+000
      vertex   -2.269436e+002 1.745995e+002 0.000000e+000
      vertex   -2.269107e+002 1.744060e+002 0.000000e+000
    endloop
  endfacet
  facet normal 0.000000e+000 -0.000000e+000 -1.000000e+000
    outer loop
      vertex   -2.267813e+002 1.740361e+002 0.000000e+000
      vertex   -2.266864e+002 1.738644e+002 0.000000e+000
      vertex   -2.289101e+002 1.728589e+002 0.000000e+000
    endloop
  endfacet
endsolid
